<?xml version="1.0" encoding="utf-8"?>
<!-- Generator: Adobe Illustrator 21.0.2, SVG Export Plug-In . SVG Version: 6.00 Build 0)  -->
<svg version="1.1" id="Layer_1" xmlns="http://www.w3.org/2000/svg" xmlns:xlink="http://www.w3.org/1999/xlink" x="0px" y="0px"
	 viewBox="0 0 100 100" style="enable-background:new 0 0 100 100;" xml:space="preserve">
<path d="M90.8,63.1L79,39.5C78.7,20.4,63.1,5,44,5C24.7,5,9,20.7,9,40v53c0,1.1,0.9,2,2,2h33c1.1,0,2-0.9,2-2V82h31c1.1,0,2-0.9,2-2
	V66h10c0.7,0,1.3-0.4,1.7-0.9C91.1,64.5,91.1,63.7,90.8,63.1z M77,62c-1.1,0-2,0.9-2,2v14H44c-1.1,0-2,0.9-2,2v11H13V40
	C13,22.9,26.9,9,44,9c17.1,0,31,13.9,31,31c0,0.3,0.1,0.6,0.2,0.9L85.8,62H77z M68,40c0,6.6-2.6,12.7-7.3,17.2
	c-1.7,1.7-3.7,3.1-5.8,4.1c-0.3,0.1-0.6,0.2-0.9,0.2c-0.7,0-1.4-0.4-1.8-1.1c-0.5-1-0.1-2.2,0.9-2.7c1.8-0.9,3.4-2.1,4.8-3.5
	C61.8,50.6,64,45.5,64,40c0-11-9-20-20-20c-11,0-20,9-20,20c0,7.6,4.2,14.4,10.9,17.8c1,0.5,1.4,1.7,0.9,2.7s-1.7,1.4-2.7,0.9
	C25,57.3,20,49.1,20,40c0-13.2,10.8-24,24-24C57.2,16,68,26.8,68,40z M51.4,39.6c0.8,0.8,0.8,2,0,2.8C51,42.8,50.5,43,50,43
	s-1-0.2-1.4-0.6L46,39.8V67c0,1.1-0.9,2-2,2s-2-0.9-2-2V39.8l-2.6,2.6C39,42.8,38.5,43,38,43s-1-0.2-1.4-0.6c-0.8-0.8-0.8-2,0-2.8
	l6-6c0.8-0.8,2-0.8,2.8,0L51.4,39.6z"/>
</svg>
